<!-- Generated by IcoMoon.io -->
<svg version="1.1" xmlns="http://www.w3.org/2000/svg" width="32" height="32" viewBox="0 0 32 32">
<title>Card</title>
<path fill="none" stroke="#9b9b9b" stroke-linejoin="round" stroke-linecap="round" stroke-miterlimit="4" stroke-width="3.2" d="M12.073 29.091c0.723 0 1.309-0.586 1.309-1.309s-0.586-1.309-1.309-1.309-1.309 0.586-1.309 1.309c0 0.723 0.586 1.309 1.309 1.309z"></path>
<path fill="none" stroke="#9b9b9b" stroke-linejoin="round" stroke-linecap="round" stroke-miterlimit="4" stroke-width="3.2" d="M26.473 29.091c0.723 0 1.309-0.586 1.309-1.309s-0.586-1.309-1.309-1.309c-0.723 0-1.309 0.586-1.309 1.309s0.586 1.309 1.309 1.309z"></path>
<path fill="none" stroke="#9b9b9b" stroke-linejoin="round" stroke-linecap="round" stroke-miterlimit="4" stroke-width="3.2" d="M1.6 1.6h5.236l3.508 17.529c0.12 0.603 0.448 1.144 0.926 1.529s1.078 0.59 1.692 0.578h12.724c0.614 0.012 1.213-0.193 1.692-0.578s0.807-0.927 0.926-1.529l2.095-10.983h-22.255"></path>
</svg>
