<!-- Generated by IcoMoon.io -->
<svg version="1.1" xmlns="http://www.w3.org/2000/svg" width="36" height="32" viewBox="0 0 36 32">
<title>Fav</title>
<path fill="#9b9b9b" d="M24.383 0c2.63 0 4.84 0.887 6.629 2.661s2.683 3.939 2.683 6.496c0 1.252-0.263 2.518-0.789 3.796s-1.105 2.413-1.736 3.405c-0.631 0.991-1.697 2.27-3.196 3.835s-2.762 2.831-3.788 3.796-2.67 2.439-4.932 4.422l-2.446 2.191-2.446-2.113c-2.21-2.035-3.84-3.535-4.892-4.5s-2.328-2.231-3.827-3.796c-1.499-1.565-2.565-2.844-3.196-3.835s-1.197-2.126-1.697-3.405c-0.5-1.278-0.75-2.544-0.75-3.796 0-2.557 0.894-4.722 2.683-6.496s3.972-2.661 6.55-2.661c3.051 0 5.576 1.174 7.575 3.522 1.999-2.348 4.524-3.522 7.575-3.522zM16.966 25.985c2.578-2.296 4.458-4.005 5.642-5.127s2.486-2.465 3.906-4.031c1.42-1.565 2.407-2.935 2.959-4.109s0.829-2.361 0.829-3.561c0-1.67-0.566-3.052-1.697-4.148s-2.538-1.644-4.222-1.644c-1.263 0-2.459 0.365-3.59 1.096s-1.933 1.67-2.407 2.818h-3.156c-0.421-1.148-1.197-2.087-2.328-2.818s-2.354-1.096-3.669-1.096c-1.683 0-3.078 0.548-4.182 1.644s-1.657 2.478-1.657 4.148c0 1.2 0.263 2.387 0.789 3.561s1.512 2.544 2.959 4.109c1.447 1.565 2.762 2.909 3.946 4.031s3.038 2.831 5.563 5.127l0.158 0.156 0.158-0.156z"></path>
</svg>
