<!-- Generated by IcoMoon.io -->
<svg version="1.1" xmlns="http://www.w3.org/2000/svg" width="32" height="32" viewBox="0 0 32 32">
<title>lk</title>
<path fill="#9b9b9b" d="M0 16c0-8.674 7.326-16 16-16s16 7.326 16 16c0 5.104-2.547 9.725-6.4 12.678v0.122h-0.163c-2.669 1.992-5.938 3.2-9.437 3.2s-6.768-1.208-9.437-3.2h-0.163v-0.122c-3.853-2.954-6.4-7.576-6.4-12.678zM11.398 24.378c-0.851 0.685-1.443 1.639-1.679 2.706 1.869 1.083 4.016 1.717 6.282 1.717s4.413-0.634 6.282-1.717c-0.236-1.067-0.828-2.021-1.679-2.705s-1.91-1.059-3.002-1.061h-3.2c-1.092 0.002-2.151 0.376-3.002 1.061zM22.028 21.459c1.312 0.873 2.337 2.114 2.948 3.567 2.347-2.334 3.824-5.544 3.824-9.026 0-6.939-5.861-12.8-12.8-12.8s-12.8 5.861-12.8 12.8c0 3.482 1.477 6.691 3.824 9.026 0.61-1.453 1.636-2.694 2.948-3.567s2.852-1.34 4.428-1.342h3.2c1.576 0.002 3.116 0.469 4.428 1.342zM9.6 12.8c0-3.648 2.752-6.4 6.4-6.4s6.4 2.752 6.4 6.4c0 3.648-2.752 6.4-6.4 6.4s-6.4-2.752-6.4-6.4zM12.8 12.8c0 1.885 1.315 3.2 3.2 3.2s3.2-1.315 3.2-3.2c0-1.885-1.315-3.2-3.2-3.2s-3.2 1.315-3.2 3.2z"></path>
</svg>
